<svg width="32" height="32" viewBox="0 0 32 32" fill="none" xmlns="http://www.w3.org/2000/svg">
<g clip-path="url(#clip0_56826_41899)">
<path d="M32 16C32 12.1921 30.6561 8.68809 28.432 5.95205V5.93604C26.88 4.01602 24.88 2.46406 22.608 1.44004C20.592 0.512012 18.3521 0 16 0C7.16807 0 0 7.15205 0 16C0 24.832 7.16807 32 16 32C24.832 32 32 24.832 32 16ZM25.792 6.57607L21.424 10.1921C21.6641 9.98408 21.984 9.88809 22.304 9.92002C22.624 9.95205 22.928 10.112 23.12 10.3681C23.3601 10.6721 23.6 10.9921 23.792 11.344L27.296 8.43203C28.7521 10.5921 29.6 13.2 29.6 16C29.6 18.7841 28.7521 21.3761 27.312 23.536L23.792 20.64C23.6 20.9761 23.376 21.312 23.136 21.616C22.944 21.8561 22.64 22.032 22.32 22.0641C22 22.096 21.68 22 21.424 21.7921L25.808 25.408C24.8641 26.3841 23.776 27.232 22.576 27.904L13.424 16.496V15.504L22.576 4.096C23.7601 4.75205 24.848 5.6 25.792 6.57607ZM2.4 16C2.4 8.48008 8.496 2.4 16 2.4C17.504 2.4 18.944 2.65605 20.288 3.104L11.28 14.32C11.12 14.544 11.024 14.8 11.024 15.0721V16.912C11.024 17.1841 11.12 17.4561 11.28 17.6641L20.288 28.896C18.944 29.344 17.504 29.6 16 29.6C8.496 29.6 2.4 23.504 2.4 16Z" fill="#22A5F7"/>
<path d="M15.2578 9.35156C11.914 9.71978 9.30571 12.5519 9.30566 16.0078C9.30566 19.4477 11.914 22.2796 15.2578 22.6318L17.1465 25C16.7625 25.064 16.3781 25.0801 15.9941 25.0801C10.9701 25.0801 6.90625 21.0158 6.90625 16.0078C6.9063 10.9838 10.9701 6.91992 15.9941 6.91992C16.3941 6.91992 16.7781 6.93605 17.1621 7L15.2578 9.35156ZM25.082 16.0078C25.082 18.1198 24.3459 20.072 23.1299 21.624C22.9379 21.8638 22.6343 22.0403 22.3145 22.0723C21.9944 22.1043 21.6739 22.0078 21.418 21.7998L15.8818 17.2402C15.6099 17.0002 15.4502 16.6635 15.4502 16.3115V15.6875C15.4503 15.3357 15.61 14.9993 15.8818 14.7754L21.418 10.2002C21.6579 9.99225 21.9779 9.89579 22.2979 9.92773C22.6179 9.95967 22.9223 10.12 23.1143 10.376C24.3462 11.912 25.082 13.8799 25.082 16.0078ZM22.6816 16.0078C22.6816 14.8879 22.3939 13.8322 21.9141 12.9043L18.1699 16.0078L21.9141 19.0957C22.394 18.1677 22.6816 17.1118 22.6816 16.0078Z" fill="#1B6DC6"/>
</g>
<defs>
<clipPath id="clip0_56826_41899">
<rect width="32" height="32" fill="white"/>
</clipPath>
</defs>
</svg>
